<svg width="210" height="43" viewBox="0 0 210 43" fill="none" xmlns="http://www.w3.org/2000/svg">
<g clip-path="url(#clip0_108_7703)">
<path d="M28.4505 67C53.5522 67 73.9011 46.629 73.9011 21.5C73.9011 -3.62896 53.5522 -24 28.4505 -24C3.3489 -24 -17 -3.62896 -17 21.5C-17 46.629 3.3489 67 28.4505 67Z" fill="url(#paint0_radial_108_7703)"/>
<path d="M37.7247 5.4248L28.4512 10.781L37.7247 16.1444V5.4248Z" fill="url(#paint1_linear_108_7703)"/>
<path d="M37.7246 16.1447L46.9981 21.5009V10.7812L37.7246 16.1447Z" fill="url(#paint2_linear_108_7703)"/>
<path d="M46.9981 10.781L37.7246 5.4248V16.1444L46.9981 10.781Z" fill="url(#paint3_linear_108_7703)"/>
<path d="M56.2668 5.42456L46.9981 0.0683594L37.7246 5.42456L46.9981 10.7808L56.2668 5.42456Z" fill="url(#paint4_linear_108_7703)"/>
<path d="M56.2687 5.4248L47 10.781V21.5006L56.2687 16.1444V5.4248Z" fill="url(#paint5_linear_108_7703)"/>
<path d="M9.90932 21.5L0.640625 26.861V37.5758L9.90932 32.2196V21.5Z" fill="url(#paint6_linear_108_7703)"/>
<path d="M0.640625 37.5759L9.90932 42.9369L19.1828 37.5759L9.90932 32.2197L0.640625 37.5759Z" fill="url(#paint7_linear_108_7703)"/>
<path d="M19.1837 26.861L9.91016 21.5V32.2196L19.1837 26.861Z" fill="url(#paint8_linear_108_7703)"/>
<path d="M9.91016 32.2199L19.1837 37.5761V26.8613L9.91016 32.2199Z" fill="url(#paint9_linear_108_7703)"/>
<path d="M19.1836 37.5761L28.4523 32.2199L19.1836 26.8613V37.5761Z" fill="url(#paint10_linear_108_7703)"/>
<path d="M37.7246 26.8618L46.9981 21.5007L37.7246 16.1445V26.8618Z" fill="url(#paint11_linear_108_7703)"/>
<path d="M28.4512 32.2199L37.7247 37.5761V26.8613L28.4512 32.2199Z" fill="url(#paint12_linear_108_7703)"/>
<path d="M56.2687 37.5758V26.861L47 21.5V32.2196L56.2687 37.5758Z" fill="url(#paint13_linear_108_7703)"/>
<path d="M37.7246 37.5759L46.9981 42.9369L56.2668 37.5759L46.9981 32.2197L37.7246 37.5759Z" fill="url(#paint14_linear_108_7703)"/>
<path d="M37.7246 26.8613V37.5761L46.9981 32.2199L37.7246 26.8613Z" fill="url(#paint15_linear_108_7703)"/>
<path d="M46.9981 32.2196V21.5L37.7246 26.861L46.9981 32.2196Z" fill="url(#paint16_linear_108_7703)"/>
<path d="M19.1836 26.861L28.4523 32.2196V21.5L19.1836 26.861Z" fill="url(#paint17_linear_108_7703)"/>
<path d="M37.7247 16.1447L28.4512 10.7812V21.5009L37.7247 16.1447Z" fill="url(#paint18_linear_108_7703)"/>
<path d="M28.4512 21.5V32.2196L37.7247 26.861L28.4512 21.5Z" fill="url(#paint19_linear_108_7703)"/>
<path d="M37.7247 26.8618V16.1445L28.4512 21.5007L37.7247 26.8618Z" fill="url(#paint20_linear_108_7703)"/>
<path d="M19.1836 26.8618L28.4523 21.5007L19.1836 16.1445V26.8618Z" fill="url(#paint21_linear_108_7703)"/>
<path d="M28.4523 21.5009V10.7812L19.1836 16.1447L28.4523 21.5009Z" fill="url(#paint22_linear_108_7703)"/>
<path d="M28.4523 10.781L19.1836 5.4248V16.1444L28.4523 10.781Z" fill="url(#paint23_linear_108_7703)"/>
<path d="M19.1837 16.1445L9.91016 21.5007L19.1837 26.8618V16.1445Z" fill="url(#paint24_linear_108_7703)"/>
<path d="M19.1837 16.1444V5.4248L9.91016 10.781L19.1837 16.1444Z" fill="url(#paint25_linear_108_7703)"/>
<path d="M9.91016 10.7812V21.5009L19.1837 16.1447L9.91016 10.7812Z" fill="url(#paint26_linear_108_7703)"/>
<path d="M0.640625 5.4248V16.1444L9.90932 21.5006V10.781L0.640625 5.4248Z" fill="url(#paint27_linear_108_7703)"/>
<path d="M19.1828 5.42456L9.90932 0.0683594L0.640625 5.42456L9.90932 10.7808L19.1828 5.42456Z" fill="url(#paint28_linear_108_7703)"/>
<path d="M19.1836 26.8619V16.1447L28.4523 10.7812L37.7258 16.1447V26.8619L28.4523 32.2205L19.1836 26.8619Z" fill="url(#paint29_linear_108_7703)"/>
<g opacity="0.82">
<path d="M28.4523 10.7812L19.1836 16.1447L28.4523 21.5009L37.7258 16.1447L28.4523 10.7812Z" fill="url(#paint30_linear_108_7703)"/>
</g>
<g opacity="0.82">
<path d="M28.4531 21.5007V32.2204L37.7266 26.8618V16.1445L28.4531 21.5007Z" fill="url(#paint31_linear_108_7703)"/>
</g>
<g opacity="0.82">
<path d="M28.4523 32.2204L19.1836 26.8618V16.1445L28.4523 21.5007V32.2204Z" fill="url(#paint32_linear_108_7703)"/>
</g>
<path opacity="0.82" d="M9.91016 32.2204V21.5007L19.1837 16.1445V26.8618L9.91016 32.2204Z" fill="url(#paint33_linear_108_7703)"/>
<path opacity="0.82" d="M37.7266 26.8618L47.0001 21.5007L37.7266 16.1445V26.8618Z" fill="url(#paint34_linear_108_7703)"/>
<path opacity="0.82" d="M47.0001 32.2206V21.501L37.7266 26.862L47.0001 32.2206Z" fill="url(#paint35_linear_108_7703)"/>
<path opacity="0.82" d="M9.91016 32.2199L19.1837 37.5761V26.8613L9.91016 32.2199Z" fill="url(#paint36_linear_108_7703)"/>
<path opacity="0.82" d="M19.1836 37.5761L28.4523 32.2199L19.1836 26.8613V37.5761Z" fill="url(#paint37_linear_108_7703)"/>
<path opacity="0.82" d="M37.7266 5.4248L28.4531 10.781L37.7266 16.1444V5.4248Z" fill="url(#paint38_linear_108_7703)"/>
<path opacity="0.82" d="M28.4523 10.781L19.1836 5.4248V16.1444L28.4523 10.781Z" fill="url(#paint39_linear_108_7703)"/>
<path opacity="0.82" d="M19.1837 16.1444V5.4248L9.91016 10.781L19.1837 16.1444Z" fill="url(#paint40_linear_108_7703)"/>
<path opacity="0.82" d="M47.0001 10.781L37.7266 5.4248V16.1444L47.0001 10.781Z" fill="url(#paint41_linear_108_7703)"/>
<g opacity="0.82">
<path d="M37.7258 16.1447L28.4523 21.5009L19.1836 16.1447L28.4523 10.7812L37.7258 16.1447Z" fill="url(#paint42_linear_108_7703)"/>
</g>
<path opacity="0.82" d="M28.4531 10.781L37.7266 5.4248L47.0001 10.781L37.7266 16.1444L28.4531 10.781Z" fill="url(#paint43_linear_108_7703)"/>
<path opacity="0.82" d="M47.0001 10.7812V21.5009V32.2205L37.729 37.5767L28.4531 32.2205L37.7266 26.8619V16.1447L47.0001 10.7812Z" fill="url(#paint44_linear_108_7703)"/>
<path opacity="0.82" d="M47.0001 10.7812V21.5009V32.2205L37.729 37.5767L28.4531 32.2205L37.7266 26.8619V16.1447L47.0001 10.7812Z" fill="url(#paint45_linear_108_7703)"/>
<path opacity="0.82" d="M9.91016 21.5007V32.2204L19.1837 37.5766L28.4524 32.2204L19.1837 26.8618V16.1445L9.91016 21.5007Z" fill="url(#paint46_linear_108_7703)"/>
<g opacity="0.82">
<path d="M28.4531 21.5007L37.7266 26.8618L47.0001 21.5007L37.7266 16.1445L28.4531 21.5007Z" fill="url(#paint47_linear_108_7703)"/>
</g>
<g opacity="0.77">
<g opacity="0.69">
<path d="M28.4531 21.5007V32.2204L37.7266 26.8618V16.1445L28.4531 21.5007Z" fill="url(#paint48_linear_108_7703)"/>
</g>
<path d="M28.4523 32.2204L19.1836 26.8618V16.1445L28.4523 21.5007V32.2204Z" fill="url(#paint49_linear_108_7703)"/>
<g opacity="0.77">
<path d="M37.7258 16.1447L28.4523 21.5009L19.1836 16.1447L28.4523 10.7812L37.7258 16.1447Z" fill="url(#paint50_linear_108_7703)"/>
</g>
</g>
<path d="M81.2199 15.8077H71.0679C70.8224 15.8077 70.6973 15.6751 70.6973 15.4077V5.7193C70.6973 5.45185 70.8248 5.31934 71.0824 5.31934H80.9263C81.1934 5.31934 81.3258 5.44222 81.3258 5.69039V7.0951C81.3258 7.34086 81.191 7.46615 80.9263 7.46615H73.5157V9.41058H80.4786C80.7361 9.41058 80.8637 9.53346 80.8637 9.78163V11.0924C80.8637 11.3502 80.7361 11.4779 80.4786 11.4779H73.5157V13.6681H81.2199C81.3643 13.6681 81.463 13.6946 81.5208 13.7452C81.5761 13.7958 81.605 13.8897 81.605 14.0223V15.427C81.605 15.6848 81.475 15.8125 81.2199 15.8125V15.8077Z" fill="#DCDCDA"/>
<path d="M89.3542 5.70192L92.6058 8.86552L95.8262 5.70192C96.0837 5.44411 96.3557 5.31641 96.6421 5.31641H99.138C99.2704 5.31641 99.3546 5.3646 99.3907 5.46338C99.4268 5.56217 99.3931 5.65614 99.2896 5.7477L94.4061 10.4678L99.5664 15.359C99.6578 15.4505 99.6867 15.5493 99.6506 15.6529C99.6145 15.7565 99.5351 15.8071 99.4124 15.8071H96.7167C96.594 15.8071 96.4784 15.783 96.3701 15.7373C96.2618 15.6915 96.1872 15.6505 96.1463 15.6144C96.1054 15.5782 96.0284 15.5084 95.9152 15.4072L92.5096 12.1665L89.1208 15.4072C88.8536 15.6746 88.5864 15.8071 88.3193 15.8071H85.7777C85.6549 15.8071 85.5755 15.7541 85.5394 15.6457C85.5033 15.5373 85.537 15.4361 85.6405 15.3445L90.6924 10.516L85.7151 5.77902C85.6236 5.67782 85.5923 5.57422 85.6236 5.47061C85.6549 5.36941 85.7319 5.31641 85.8547 5.31641H88.5359C88.7212 5.31641 88.8656 5.34532 88.9667 5.40074C89.0702 5.45615 89.1978 5.55735 89.3518 5.70192H89.3542Z" fill="#DCDCDA"/>
<path d="M115.886 12.1204V12.7059C115.886 13.1493 115.775 13.5589 115.554 13.9396C115.332 14.3203 114.988 14.6769 114.521 15.0118C114.054 15.3467 113.392 15.6093 112.533 15.7997C111.676 15.99 110.67 16.084 109.522 16.084C108.374 16.084 107.368 15.99 106.509 15.7997C105.652 15.6093 104.99 15.3467 104.521 15.0118C104.054 14.6769 103.71 14.3203 103.488 13.9396C103.267 13.5589 103.156 13.1469 103.156 12.7059V8.41711C103.156 7.97618 103.267 7.56416 103.488 7.18347C103.71 6.80278 104.054 6.44618 104.521 6.11127C104.988 5.77876 105.65 5.51613 106.509 5.32338C107.366 5.13303 108.372 5.03906 109.522 5.03906C110.673 5.03906 111.676 5.13544 112.533 5.32338C113.39 5.51372 114.052 5.77635 114.521 6.11127C114.988 6.44618 115.332 6.80278 115.554 7.18347C115.775 7.56416 115.886 7.97618 115.886 8.41711V8.98815C115.886 9.2556 115.763 9.38812 115.515 9.38812H113.436C113.19 9.38812 113.065 9.2556 113.065 8.98815V8.75684C113.065 8.20026 112.788 7.80511 112.232 7.56898C111.679 7.33286 110.774 7.21479 109.522 7.21479C108.271 7.21479 107.366 7.34008 106.81 7.59308C106.254 7.84607 105.977 8.27495 105.977 8.88213V12.2457C105.977 12.8529 106.254 13.2818 106.81 13.5348C107.366 13.7878 108.268 13.9131 109.522 13.9131C110.776 13.9131 111.679 13.795 112.232 13.5589C112.788 13.3227 113.065 12.9252 113.065 12.371V12.1228C113.065 11.8554 113.188 11.7229 113.436 11.7229H115.515C115.763 11.7229 115.886 11.8554 115.886 12.1228V12.1204Z" fill="#DCDCDA"/>
<path d="M123.665 5.7169V13.6633H130.859C131.003 13.6633 131.102 13.6898 131.159 13.7404C131.215 13.791 131.244 13.8849 131.244 14.0174V15.4221C131.244 15.68 131.116 15.8077 130.859 15.8077H121.169C120.952 15.8077 120.844 15.6751 120.844 15.4077V5.7193C120.844 5.45185 120.971 5.31934 121.229 5.31934H123.308C123.544 5.31934 123.662 5.45185 123.662 5.7193L123.665 5.7169Z" fill="#DCDCDA"/>
<path d="M138.193 5.71638V12.2436C138.193 12.8507 138.489 13.2796 139.079 13.5326C139.671 13.7856 140.627 13.9109 141.953 13.9109C143.279 13.9109 144.22 13.7856 144.81 13.5326C145.399 13.2796 145.695 12.8507 145.695 12.2436V5.71638C145.695 5.44893 145.823 5.31641 146.081 5.31641H148.16C148.406 5.31641 148.531 5.44893 148.531 5.71638V12.7062C148.531 13.6531 148.004 14.453 146.952 15.106C145.898 15.759 144.232 16.0842 141.953 16.0842C140.997 16.0842 140.138 16.0192 139.373 15.8915C138.607 15.7638 137.982 15.5903 137.493 15.3758C137.004 15.159 136.598 14.906 136.268 14.6121C135.938 14.3181 135.707 14.0169 135.575 13.7013C135.442 13.3881 135.375 13.0556 135.375 12.7062V5.71638C135.375 5.44893 135.498 5.31641 135.743 5.31641H137.823C138.068 5.31641 138.193 5.44893 138.193 5.71638Z" fill="#DCDCDA"/>
<path d="M163.428 8.50912V8.27782C163.428 7.8658 163.151 7.56221 162.595 7.36704C162.039 7.17188 161.132 7.07309 159.868 7.07309C158.604 7.07309 157.673 7.15019 157.134 7.3044C156.595 7.4586 156.325 7.73087 156.325 8.12361V8.41756C156.325 8.69465 156.472 8.88982 156.763 9.00306C157.057 9.1163 157.526 9.20786 158.174 9.28014L162.703 9.75722C165.117 10.0054 166.323 10.7957 166.323 12.1329V13.075C166.323 15.0821 164.167 16.0844 159.854 16.0844C155.541 16.0844 153.398 15.0869 153.398 13.0919V12.4293C153.398 12.1715 153.526 12.0438 153.784 12.0438H155.74C155.976 12.0438 156.094 12.1715 156.094 12.4293V12.8003C156.094 13.634 157.348 14.0508 159.854 14.0508C161.189 14.0508 162.152 13.9713 162.742 13.8123C163.331 13.6533 163.627 13.3786 163.627 12.9859V12.6461C163.627 12.41 163.507 12.2341 163.264 12.1209C163.023 12.0076 162.595 11.9209 161.979 11.8583L157.218 11.3499C156.118 11.2366 155.247 10.9619 154.599 10.5234C153.952 10.0849 153.629 9.4729 153.629 8.68019V8.12361C153.629 6.06594 155.709 5.03711 159.868 5.03711C164.027 5.03711 166.123 6.07558 166.123 8.15493V8.50912C166.123 8.77657 166.001 8.90909 165.755 8.90909H163.798C163.553 8.90909 163.43 8.77657 163.43 8.50912H163.428Z" fill="#DCDCDA"/>
<path d="M174.152 5.71638V15.4048C174.152 15.6722 174.034 15.8047 173.799 15.8047H171.719C171.462 15.8047 171.334 15.6722 171.334 15.4048V5.71638C171.334 5.44893 171.462 5.31641 171.719 5.31641H173.799C174.034 5.31641 174.152 5.44893 174.152 5.71638Z" fill="#DCDCDA"/>
<path d="M187.123 15.4077C186.969 15.6751 186.769 15.8077 186.522 15.8077H184.659C184.392 15.8077 184.187 15.6751 184.043 15.4077L178.574 5.7193C178.512 5.60606 178.509 5.50968 178.567 5.43499C178.622 5.35789 178.723 5.31934 178.868 5.31934H180.947C181.193 5.31934 181.388 5.45185 181.532 5.7193L184.784 11.5815C185.01 11.9718 185.309 12.5429 185.677 13.2946L186.615 11.5502L189.867 5.7193C190.011 5.45185 190.202 5.31934 190.437 5.31934H192.425C192.558 5.31934 192.657 5.35789 192.719 5.43499C192.782 5.51209 192.782 5.60847 192.719 5.7193L187.126 15.4077H187.123Z" fill="#DCDCDA"/>
<path d="M207.583 15.8077H197.431C197.186 15.8077 197.061 15.6751 197.061 15.4077V5.7193C197.061 5.45185 197.188 5.31934 197.446 5.31934H207.29C207.557 5.31934 207.689 5.44222 207.689 5.69039V7.0951C207.689 7.34086 207.554 7.46615 207.29 7.46615H199.879V9.41058H206.842C207.099 9.41058 207.227 9.53346 207.227 9.78163V11.0924C207.227 11.3502 207.099 11.4779 206.842 11.4779H199.879V13.6681H207.583C207.728 13.6681 207.826 13.6946 207.884 13.7452C207.939 13.7958 207.968 13.8897 207.968 14.0223V15.427C207.968 15.6848 207.838 15.8125 207.583 15.8125V15.8077Z" fill="#DCDCDA"/>
<path d="M86.9839 31.9073V34.724L86.8251 34.7553C84.76 35.1215 82.7624 35.3095 80.8875 35.3095C76.6803 35.3095 74.1868 33.4614 74.1868 30.505C74.1868 29.4352 74.6153 25.9656 81.6865 25.9656C82.8947 25.9656 86.8251 26.621 86.8251 26.621L88.7578 24.1393L88.6374 24.12C86.2114 23.7224 83.7781 23.5225 81.4097 23.5225C77.8885 23.5225 75.0124 24.173 72.8631 25.4597C70.7138 26.7656 69.6211 28.4907 69.6211 30.5894C69.6211 32.688 70.6608 34.4975 72.7115 35.8155C74.7886 37.1142 77.5396 37.7743 80.8899 37.7743C83.8069 37.7743 86.9791 37.29 90.5894 36.2998L90.6399 36.2877V29.5629H85.7926L84.1102 31.9073H86.9864H86.9839Z" fill="#DCDCDA"/>
<path d="M106.204 23.5205C99.8981 23.5205 96.1097 26.1589 96.0664 30.5754C96.0664 32.7511 96.9377 34.4618 98.7308 35.8063C100.55 37.1291 102.88 37.7724 105.855 37.7724C108.166 37.7724 110.38 37.2809 112.44 36.3099L112.717 36.1773V37.3363H117.34V24.1783C112.76 23.7349 109.114 23.5205 106.204 23.5205ZM112.717 33.7775L112.611 33.8305C110.666 34.8329 108.628 35.3413 106.551 35.3413C102.991 35.3413 100.601 33.4595 100.601 30.6573C100.601 29.2405 101.152 28.1057 102.238 27.2841C104.712 25.4143 109.706 25.7059 112.717 26.1083V33.7775Z" fill="#DCDCDA"/>
<path d="M159.196 28.6815V37.3363H154.57V29.6453C154.57 28.7659 154.209 28.0262 153.492 27.4407C151.111 25.4938 145.306 26.0022 143.893 26.2986C144.302 26.648 144.721 27.0118 144.721 28.6526V37.3363H140.054V29.5851C140.054 28.2117 139.392 27.1829 138.088 26.5275C135.936 25.4481 132.444 25.6408 130.206 25.9878V37.3363H125.582V24.2241C126.35 24.1132 127.844 23.9349 130.104 23.7855C132.321 23.6072 134.3 23.5205 136.15 23.5205C138.574 23.5205 140.483 23.8169 141.831 24.4072L141.893 24.4337L141.956 24.4192C144.336 23.8217 147.265 23.5205 150.668 23.5205C156.406 23.5205 159.196 25.2095 159.196 28.6815Z" fill="#DCDCDA"/>
<path d="M183.353 25.1562C182.441 24.6068 181.389 24.19 180.205 23.9129C179.021 23.6358 177.704 23.4961 176.258 23.4961C173.16 23.4961 170.57 24.1635 168.563 25.4743C166.568 26.7778 165.598 28.4668 165.598 30.6353C165.598 32.8038 166.594 34.4567 168.563 35.7722C170.558 37.1022 173.451 37.7769 177.172 37.7769C178.924 37.7769 182.299 37.601 185.49 36.4324L184.169 34.4229C180.472 35.4686 178.426 35.4686 177.064 35.4686C173.718 35.4686 171.213 34.1025 170.387 31.9894L170.281 31.7244H185.87C186.046 31.0136 186.13 30.2474 186.13 29.3872C186.092 27.6211 185.18 26.2405 183.348 25.1586L183.353 25.1562ZM170.151 29.5486L170.207 29.3101C170.693 27.185 173.044 25.7537 176.349 25.7537C179.654 25.7537 181.853 27.1609 181.993 29.3414L182.005 29.5486H170.151Z" fill="#DCDCDA"/>
<path d="M207.826 30.9294C206.707 30.3825 204.823 29.9199 202.216 29.5488C200.187 29.2838 199.024 29.1079 198.663 29.0187C197.277 28.7344 196.598 28.2622 196.598 27.5803C196.598 26.4286 197.828 25.872 200.37 25.872C202.283 25.872 204.767 26.1756 207.756 26.7779L208.808 24.5396C206.259 23.8962 203.581 23.583 200.63 23.583C195.178 23.583 191.518 25.2841 191.518 27.814C191.518 29.8307 193.797 31.021 198.909 31.6643C199.154 31.7101 199.544 31.7534 199.917 31.7968C200.29 31.8402 200.68 31.8836 200.926 31.9293C201.097 31.9558 201.311 31.9872 201.53 32.0161C201.985 32.0787 202.457 32.1438 202.733 32.2257C203.79 32.3944 205.227 32.7437 205.227 33.7774C205.227 34.8857 203.821 35.3989 200.801 35.3989C198.264 35.3989 195.537 35.0134 192.468 34.2183L191.599 36.6133C194.514 37.3843 197.52 37.7747 200.541 37.7747C206.377 37.7747 210 36.1097 210 33.4304C210 32.1438 208.64 31.3125 207.826 30.9294Z" fill="#DCDCDA"/>
</g>
<defs>
<radialGradient id="paint0_radial_108_7703" cx="0" cy="0" r="1" gradientUnits="userSpaceOnUse" gradientTransform="translate(28.4505 21.5) scale(45.4505 45.5)">
<stop stop-color="#FFE663"/>
<stop offset="0.04" stop-color="#FFD163" stop-opacity="0.84"/>
<stop offset="0.1" stop-color="#FFBA63" stop-opacity="0.67"/>
<stop offset="0.16" stop-color="#FFA563" stop-opacity="0.51"/>
<stop offset="0.23" stop-color="#FF9363" stop-opacity="0.37"/>
<stop offset="0.3" stop-color="#FF8463" stop-opacity="0.25"/>
<stop offset="0.38" stop-color="#FF7863" stop-opacity="0.16"/>
<stop offset="0.47" stop-color="#FF6E63" stop-opacity="0.09"/>
<stop offset="0.57" stop-color="#FF6763" stop-opacity="0.04"/>
<stop offset="0.71" stop-color="#FF6463" stop-opacity="0"/>
<stop offset="1" stop-color="#FF6363" stop-opacity="0"/>
</radialGradient>
<linearGradient id="paint1_linear_108_7703" x1="43.5685" y1="-1.05661" x2="8.59305" y2="47.2914" gradientUnits="userSpaceOnUse">
<stop stop-color="#FF3C2E"/>
<stop offset="1" stop-color="#872AFF"/>
</linearGradient>
<linearGradient id="paint2_linear_108_7703" x1="57.2247" y1="-10.299" x2="37.9923" y2="27.2979" gradientUnits="userSpaceOnUse">
<stop stop-color="#FF291A"/>
<stop offset="1" stop-color="#6B11FF"/>
</linearGradient>
<linearGradient id="paint3_linear_108_7703" x1="57.0659" y1="-12.2678" x2="22.0905" y2="36.0802" gradientUnits="userSpaceOnUse">
<stop stop-color="#FF493C"/>
<stop offset="1" stop-color="#8F38FF"/>
</linearGradient>
<linearGradient id="paint4_linear_108_7703" x1="55.3739" y1="-6.18416" x2="20.4009" y2="42.1638" gradientUnits="userSpaceOnUse">
<stop stop-color="#D8338B"/>
<stop offset="1" stop-color="#2F4BD8"/>
</linearGradient>
<linearGradient id="paint5_linear_108_7703" x1="62.4109" y1="-7.64885" x2="43.1761" y2="29.9481" gradientUnits="userSpaceOnUse">
<stop stop-color="#D7157C"/>
<stop offset="1" stop-color="#0D39D6"/>
</linearGradient>
<linearGradient id="paint6_linear_108_7703" x1="32.637" y1="-6.58693" x2="-8.9743" y2="48.2326" gradientUnits="userSpaceOnUse">
<stop stop-color="#D4355C"/>
<stop offset="1" stop-color="#3C31D3"/>
</linearGradient>
<linearGradient id="paint7_linear_108_7703" x1="28.0761" y1="-5.97724" x2="7.51258" y2="43.2174" gradientUnits="userSpaceOnUse">
<stop stop-color="#D42D75"/>
<stop offset="1" stop-color="#283DCF"/>
</linearGradient>
<linearGradient id="paint8_linear_108_7703" x1="46.08" y1="-17.4559" x2="4.47106" y2="37.366" gradientUnits="userSpaceOnUse">
<stop stop-color="#FF3C2A"/>
<stop offset="1" stop-color="#8226FF"/>
</linearGradient>
<linearGradient id="paint9_linear_108_7703" x1="60.7496" y1="-4.62774" x2="23.489" y2="27.1779" gradientUnits="userSpaceOnUse">
<stop stop-color="#FF1E0E"/>
<stop offset="1" stop-color="#6305FF"/>
</linearGradient>
<linearGradient id="paint10_linear_108_7703" x1="47.5264" y1="-27.3079" x2="26.9653" y2="21.8868" gradientUnits="userSpaceOnUse">
<stop stop-color="#FF160E"/>
<stop offset="1" stop-color="#5B05FF"/>
</linearGradient>
<linearGradient id="paint11_linear_108_7703" x1="63.2996" y1="12.1786" x2="11.0774" y2="31.1743" gradientUnits="userSpaceOnUse">
<stop stop-color="#FF3E30"/>
<stop offset="1" stop-color="#832CFF"/>
</linearGradient>
<linearGradient id="paint12_linear_108_7703" x1="70.6742" y1="-0.946105" x2="38.117" y2="30.0329" gradientUnits="userSpaceOnUse">
<stop stop-color="#E63740"/>
<stop offset="1" stop-color="#6032E1"/>
</linearGradient>
<linearGradient id="paint13_linear_108_7703" x1="69.8577" y1="4.29173" x2="34.8847" y2="52.6373" gradientUnits="userSpaceOnUse">
<stop stop-color="#D72837"/>
<stop offset="1" stop-color="#5425D7"/>
</linearGradient>
<linearGradient id="paint14_linear_108_7703" x1="78.6262" y1="7.40965" x2="46.0715" y2="38.3911" gradientUnits="userSpaceOnUse">
<stop stop-color="#D8344C"/>
<stop offset="1" stop-color="#492FD3"/>
</linearGradient>
<linearGradient id="paint15_linear_108_7703" x1="72.4118" y1="0.880257" x2="39.8571" y2="31.8593" gradientUnits="userSpaceOnUse">
<stop stop-color="#FF3D4A"/>
<stop offset="1" stop-color="#6738FA"/>
</linearGradient>
<linearGradient id="paint16_linear_108_7703" x1="69.2372" y1="1.71362" x2="27.7619" y2="44.5615" gradientUnits="userSpaceOnUse">
<stop stop-color="#FF3E30"/>
<stop offset="1" stop-color="#832CFF"/>
</linearGradient>
<linearGradient id="paint17_linear_108_7703" x1="48.1233" y1="-7.5989" x2="1.29946" y2="63.7921" gradientUnits="userSpaceOnUse">
<stop stop-color="#FF493C"/>
<stop offset="1" stop-color="#9B37FF"/>
</linearGradient>
<linearGradient id="paint18_linear_108_7703" x1="31.414" y1="17.2554" x2="6.58575" y2="73.3659" gradientUnits="userSpaceOnUse">
<stop stop-color="#FF7A3C"/>
<stop offset="1" stop-color="#CD37FF"/>
</linearGradient>
<linearGradient id="paint19_linear_108_7703" x1="47.3496" y1="-17.7981" x2="6.14144" y2="103.232" gradientUnits="userSpaceOnUse">
<stop stop-color="#FF603C"/>
<stop offset="1" stop-color="#B237FF"/>
</linearGradient>
<linearGradient id="paint20_linear_108_7703" x1="47.3496" y1="-17.7974" x2="6.14145" y2="103.233" gradientUnits="userSpaceOnUse">
<stop stop-color="#FF6D3C"/>
<stop offset="1" stop-color="#BF37FF"/>
</linearGradient>
<linearGradient id="paint21_linear_108_7703" x1="35.0735" y1="1.6252" x2="-11.7528" y2="73.0186" gradientUnits="userSpaceOnUse">
<stop stop-color="#FF493C"/>
<stop offset="1" stop-color="#9B37FF"/>
</linearGradient>
<linearGradient id="paint22_linear_108_7703" x1="25.6387" y1="14.699" x2="0.810473" y2="70.8119" gradientUnits="userSpaceOnUse">
<stop stop-color="#FF6D3C"/>
<stop offset="1" stop-color="#BF37FF"/>
</linearGradient>
<linearGradient id="paint23_linear_108_7703" x1="38.7246" y1="-12.5497" x2="3.75163" y2="35.7983" gradientUnits="userSpaceOnUse">
<stop stop-color="#FF4133"/>
<stop offset="1" stop-color="#8B2FFF"/>
</linearGradient>
<linearGradient id="paint24_linear_108_7703" x1="38.7488" y1="-7.77164" x2="-2.86252" y2="47.0479" gradientUnits="userSpaceOnUse">
<stop stop-color="#FF2F20"/>
<stop offset="1" stop-color="#781CFF"/>
</linearGradient>
<linearGradient id="paint25_linear_108_7703" x1="40.9895" y1="-23.1705" x2="6.01653" y2="25.1775" gradientUnits="userSpaceOnUse">
<stop stop-color="#FF4B3E"/>
<stop offset="1" stop-color="#9139FF"/>
</linearGradient>
<linearGradient id="paint26_linear_108_7703" x1="13.3591" y1="-19.4332" x2="15.0186" y2="33.9215" gradientUnits="userSpaceOnUse">
<stop stop-color="#FF291A"/>
<stop offset="1" stop-color="#6B11FF"/>
</linearGradient>
<linearGradient id="paint27_linear_108_7703" x1="36.2208" y1="-32.2614" x2="-6.92571" y2="31.3527" gradientUnits="userSpaceOnUse">
<stop stop-color="#D7157C"/>
<stop offset="1" stop-color="#0D39D6"/>
</linearGradient>
<linearGradient id="paint28_linear_108_7703" x1="21.2262" y1="-14.4799" x2="-12.0474" y2="43.9253" gradientUnits="userSpaceOnUse">
<stop stop-color="#D8358C"/>
<stop offset="1" stop-color="#304AD8"/>
</linearGradient>
<linearGradient id="paint29_linear_108_7703" x1="39.9834" y1="-18.3803" x2="21.1145" y2="46.753" gradientUnits="userSpaceOnUse">
<stop stop-color="#F0E1BB"/>
<stop offset="1" stop-color="#FFF2A0" stop-opacity="0"/>
</linearGradient>
<linearGradient id="paint30_linear_108_7703" x1="38.5586" y1="8.38867" x2="14.4203" y2="26.8751" gradientUnits="userSpaceOnUse">
<stop stop-color="#FFE663"/>
<stop offset="1" stop-color="#FF6363" stop-opacity="0"/>
</linearGradient>
<linearGradient id="paint31_linear_108_7703" x1="53.4601" y1="-9.46307" x2="24.2815" y2="38.623" gradientUnits="userSpaceOnUse">
<stop stop-color="#FFE663"/>
<stop offset="1" stop-color="#FF6363" stop-opacity="0"/>
</linearGradient>
<linearGradient id="paint32_linear_108_7703" x1="47.8802" y1="-2.26124" x2="21.7592" y2="26.3829" gradientUnits="userSpaceOnUse">
<stop stop-color="#FFE663"/>
<stop offset="1" stop-color="#FF6363" stop-opacity="0"/>
</linearGradient>
<linearGradient id="paint33_linear_108_7703" x1="47.2328" y1="-27.905" x2="10.9198" y2="29.8332" gradientUnits="userSpaceOnUse">
<stop stop-color="#FFAE3D"/>
<stop offset="1" stop-color="#FF3D3D" stop-opacity="0"/>
</linearGradient>
<linearGradient id="paint34_linear_108_7703" x1="20.2265" y1="10.692" x2="49.5878" y2="28.5465" gradientUnits="userSpaceOnUse">
<stop stop-color="#FFAE3D"/>
<stop offset="1" stop-color="#FF3D3D" stop-opacity="0"/>
</linearGradient>
<linearGradient id="paint35_linear_108_7703" x1="72.9697" y1="9.56457" x2="39.9604" y2="31.0625" gradientUnits="userSpaceOnUse">
<stop stop-color="#FFAE3D"/>
<stop offset="1" stop-color="#FF3D3D" stop-opacity="0"/>
</linearGradient>
<linearGradient id="paint36_linear_108_7703" x1="45.2111" y1="-17.8604" x2="12.0706" y2="39.0362" gradientUnits="userSpaceOnUse">
<stop stop-color="#FFAE3D"/>
<stop offset="1" stop-color="#FF3D3D" stop-opacity="0"/>
</linearGradient>
<linearGradient id="paint37_linear_108_7703" x1="49.7359" y1="-8.78163" x2="15.4501" y2="41.8014" gradientUnits="userSpaceOnUse">
<stop stop-color="#FFAE3D"/>
<stop offset="1" stop-color="#FF3D3D" stop-opacity="0"/>
</linearGradient>
<linearGradient id="paint38_linear_108_7703" x1="23.4301" y1="32.0034" x2="43.506" y2="-6.44791" gradientUnits="userSpaceOnUse">
<stop stop-color="#FFAE3D"/>
<stop offset="1" stop-color="#FF3D3D" stop-opacity="0"/>
</linearGradient>
<linearGradient id="paint39_linear_108_7703" x1="41.4179" y1="-16.2795" x2="6.44487" y2="32.0661" gradientUnits="userSpaceOnUse">
<stop stop-color="#FFAE3D"/>
<stop offset="1" stop-color="#FF3D3D" stop-opacity="0"/>
</linearGradient>
<linearGradient id="paint40_linear_108_7703" x1="37.8703" y1="-18.848" x2="2.89487" y2="29.5" gradientUnits="userSpaceOnUse">
<stop stop-color="#FFAE3D"/>
<stop offset="1" stop-color="#FF3D3D" stop-opacity="0"/>
</linearGradient>
<linearGradient id="paint41_linear_108_7703" x1="28.5253" y1="34.6634" x2="48.6012" y2="-3.78547" gradientUnits="userSpaceOnUse">
<stop stop-color="#FFAE3D"/>
<stop offset="1" stop-color="#FF3D3D" stop-opacity="0"/>
</linearGradient>
<linearGradient id="paint42_linear_108_7703" x1="30.0889" y1="11.1475" x2="10.126" y2="72.0431" gradientUnits="userSpaceOnUse">
<stop stop-color="#FFE663"/>
<stop offset="1" stop-color="#FF6363" stop-opacity="0"/>
</linearGradient>
<linearGradient id="paint43_linear_108_7703" x1="32.7349" y1="22.5078" x2="44.6899" y2="-5.51193" gradientUnits="userSpaceOnUse">
<stop stop-color="#FFAE3D"/>
<stop offset="1" stop-color="#FF3D3D" stop-opacity="0"/>
</linearGradient>
<linearGradient id="paint44_linear_108_7703" x1="50.2397" y1="-32.0708" x2="36.0434" y2="40.7008" gradientUnits="userSpaceOnUse">
<stop stop-color="#FFAE3D"/>
<stop offset="1" stop-color="#FF3D3D" stop-opacity="0"/>
</linearGradient>
<linearGradient id="paint45_linear_108_7703" x1="38.7664" y1="71.2319" x2="37.7051" y2="20.5685" gradientUnits="userSpaceOnUse">
<stop stop-color="#FFAE3D"/>
<stop offset="1" stop-color="#FF3D3D" stop-opacity="0"/>
</linearGradient>
<linearGradient id="paint46_linear_108_7703" x1="62.6606" y1="-3.18405" x2="0.752089" y2="39.5014" gradientUnits="userSpaceOnUse">
<stop stop-color="#FFAE3D"/>
<stop offset="1" stop-color="#FF3D3D" stop-opacity="0"/>
</linearGradient>
<linearGradient id="paint47_linear_108_7703" x1="20.9583" y1="10.7281" x2="67.3576" y2="40.4726" gradientUnits="userSpaceOnUse">
<stop stop-color="#FFE663"/>
<stop offset="1" stop-color="#FF6363" stop-opacity="0"/>
</linearGradient>
<linearGradient id="paint48_linear_108_7703" x1="47.9773" y1="2.68054" x2="4.27738" y2="65.6551" gradientUnits="userSpaceOnUse">
<stop stop-color="#FFFBBE"/>
<stop offset="1" stop-color="#FFD1D4" stop-opacity="0"/>
</linearGradient>
<linearGradient id="paint49_linear_108_7703" x1="45.146" y1="-8.7547" x2="13.643" y2="39.7861" gradientUnits="userSpaceOnUse">
<stop stop-color="#FFE7C6"/>
<stop offset="1" stop-color="#FFD7E8" stop-opacity="0"/>
</linearGradient>
<linearGradient id="paint50_linear_108_7703" x1="30.8206" y1="3.62278" x2="9.20287" y2="117.757" gradientUnits="userSpaceOnUse">
<stop stop-color="#EBEBEB"/>
<stop offset="1" stop-color="#F1F1F1" stop-opacity="0"/>
</linearGradient>
<clipPath id="clip0_108_7703">
<rect width="210" height="43" fill="white"/>
</clipPath>
</defs>
</svg>
